
<svg width="2166px" height="1246px" viewBox="0 0 2166 1246" version="1.1" xmlns="http://www.w3.org/2000/svg" xmlns:xlink="http://www.w3.org/1999/xlink">
    <defs>
        <linearGradient x1="50.7331417%" y1="16.0220893%" x2="50%" y2="73.601702%" id="linearGradient-1">
            <stop stop-color="#5532CC" offset="0%"></stop>
            <stop stop-color="#190F4B" offset="100%"></stop>
        </linearGradient>
        <path d="M0,0 L1700,0 L1700,691.261719 L873.465137,1154.27543 C858.268486,1162.78839 839.736731,1162.77909 824.548633,1154.25088 L0,691.261719 L0,691.261719 L0,0 Z" id="path-2"></path>
        <polygon id="path-4" points="0.497 0.552 2164.076 0.552 2164.076 1217.565 0.497 1217.565"></polygon>
        <linearGradient x1="50%" y1="0%" x2="50%" y2="100%" id="linearGradient-6">
            <stop stop-color="#FFFFFF" stop-opacity="0.5" offset="0%"></stop>
            <stop stop-color="#000000" stop-opacity="0.5" offset="100%"></stop>
        </linearGradient>
        <path d="M914.2119,248.602 C908.6079,248.602 903.0039,247.16 898.0059,244.276 L757.6299,163.258 C754.2409,161.301 752.1339,157.654 752.1339,153.741 C752.1339,149.827 754.2399,146.18 757.6289,144.223 L812.2509,112.687 C815.3319,110.909 817.2449,107.594 817.2449,104.036 C817.2449,100.478 815.3319,97.164 812.2509,95.385 L800.6719,88.701 C797.2829,86.744 795.1779,83.098 795.1779,79.184 C795.1779,75.269 797.2829,71.623 800.6719,69.666 L921.3329,0.003 L921.8329,0.869 L801.1719,70.533 C798.0919,72.311 796.1779,75.626 796.1779,79.184 C796.1779,82.741 798.0919,86.056 801.1719,87.834 L812.7509,94.519 C816.1399,96.476 818.2449,100.123 818.2449,104.036 C818.2449,107.95 816.1399,111.596 812.7509,113.553 L758.1289,145.089 C755.0479,146.868 753.1339,150.183 753.1339,153.741 C753.1349,157.298 755.0489,160.613 758.1299,162.392 L898.5059,243.41 C908.1839,248.995 920.2099,249 929.8919,243.425 L1027.4509,187.239 C1030.5349,185.463 1032.4529,182.148 1032.4549,178.588 C1032.4569,175.029 1030.5429,171.711 1027.4609,169.932 L972.5889,138.252 C969.1829,136.285 967.0779,132.62 967.0949,128.687 C967.1119,124.754 969.2489,121.107 972.6729,119.17 L1027.3629,88.228 C1037.2949,82.608 1049.6089,82.652 1059.5009,88.348 L1229.6139,186.283 C1239.3489,191.888 1251.4239,191.852 1261.1259,186.19 L1315.4439,154.49 C1318.5089,152.7 1320.4079,149.383 1320.3979,145.833 C1320.3869,142.283 1318.4699,138.977 1315.3939,137.205 L1230.3009,88.198 C1226.8869,86.232 1224.7779,82.564 1224.7959,78.624 C1224.8149,74.684 1226.9589,71.035 1230.3909,69.102 L1353.0189,-1.13686838e-13 L1353.5099,0.872 L1230.8819,69.973 C1227.7619,71.73 1225.8129,75.047 1225.7959,78.629 C1225.7799,82.21 1227.6969,85.545 1230.7999,87.332 L1315.8929,136.339 C1319.2779,138.288 1321.3869,141.925 1321.3979,145.83 C1321.4089,149.735 1319.3209,153.385 1315.9479,155.353 L1261.6289,187.053 C1251.6209,192.895 1239.1619,192.933 1229.1149,187.149 L1059.0019,89.214 C1049.4159,83.696 1037.4819,83.652 1027.8549,89.098 L973.1649,120.04 C970.0529,121.801 968.1099,125.116 968.0949,128.691 C968.0799,132.267 969.9929,135.598 973.0889,137.386 L1027.9609,169.065 C1031.3519,171.024 1033.4569,174.673 1033.4549,178.588 C1033.4529,182.505 1031.3429,186.152 1027.9499,188.105 L930.3909,244.291 C925.3999,247.165 919.8059,248.602 914.2119,248.602" id="path-7"></path>
        <linearGradient x1="50%" y1="0%" x2="50%" y2="100%" id="linearGradient-8">
            <stop stop-color="#FFFFFF" stop-opacity="0.5" offset="0%"></stop>
            <stop stop-color="#000000" stop-opacity="0.5" offset="100%"></stop>
        </linearGradient>
        <path d="M0.7451,960.9574 L0.2451,960.0914 L220.1371,833.1144 C223.2291,831.3294 225.1421,828.0024 225.1311,824.4324 C225.1201,820.8614 223.1851,817.5474 220.0821,815.7814 L164.6261,784.2264 C161.2041,782.2784 159.0761,778.6244 159.0711,774.6884 C159.0671,770.7524 161.1861,767.0924 164.6021,765.1374 L392.3401,634.7944 C395.4221,633.0304 397.3481,629.7284 397.3671,626.1784 C397.3861,622.6274 395.4951,619.3054 392.4321,617.5084 L336.5321,584.7194 C333.1631,582.7434 331.0831,579.0904 331.1021,575.1864 C331.1211,571.2814 333.2381,567.6494 336.6251,565.7074 L563.5561,435.5934 C566.6511,433.8184 568.5751,430.4994 568.5761,426.9334 C568.5781,423.3644 566.6581,420.0444 563.5641,418.2674 L534.0131,401.2834 C530.6261,399.3374 528.5141,395.7034 528.4991,391.7964 C528.4841,387.8914 530.5701,384.2404 533.9421,382.2694 L673.9751,300.3974 C677.0371,298.6074 678.9321,295.2924 678.9231,291.7464 C678.9131,288.2004 676.9991,284.8954 673.9281,283.1234 L466.3171,163.2584 C462.9281,161.3014 460.8221,157.6544 460.8221,153.7414 C460.8221,149.8284 462.9281,146.1814 466.3171,144.2244 L715.1401,0.5664 L715.6401,1.4324 L466.8171,145.0904 C463.7361,146.8694 461.8221,150.1844 461.8221,153.7414 C461.8221,157.2984 463.7361,160.6134 466.8171,162.3924 L674.4281,282.2564 C677.8071,284.2074 679.9121,287.8424 679.9231,291.7434 C679.9331,295.6454 677.8481,299.2914 674.4801,301.2604 L534.4471,383.1324 C531.3811,384.9244 529.4851,388.2424 529.4991,391.7924 C529.5131,395.3434 531.4321,398.6474 534.5111,400.4164 L564.0621,417.3994 C567.4651,419.3554 569.5781,423.0084 569.5761,426.9334 C569.5751,430.8574 567.4581,434.5084 564.0531,436.4604 L337.1221,566.5744 C334.0431,568.3394 332.1201,571.6414 332.1021,575.1904 C332.0851,578.7404 333.9761,582.0614 337.0371,583.8564 L392.9381,616.6454 C396.3071,618.6224 398.3881,622.2764 398.3671,626.1834 C398.3461,630.0904 396.2271,633.7224 392.8371,635.6624 L165.0991,766.0054 C161.9941,767.7814 160.0671,771.1084 160.0711,774.6864 C160.0761,778.2654 162.0111,781.5874 165.1201,783.3564 L220.5771,814.9124 C223.9901,816.8534 226.1191,820.5014 226.1311,824.4294 C226.1431,828.3564 224.0381,832.0164 220.6371,833.9804 L0.7451,960.9574 Z" id="path-9"></path>
        <linearGradient x1="50%" y1="0%" x2="50%" y2="100%" id="linearGradient-10">
            <stop stop-color="#FFFFFF" stop-opacity="0.5" offset="0%"></stop>
            <stop stop-color="#000000" stop-opacity="0.5" offset="100%"></stop>
        </linearGradient>
        <path d="M598.1523,731.4184 C592.5463,731.4184 586.9403,729.9734 581.9363,727.0824 L541.0223,703.4454 C537.6293,701.4854 535.529291,697.8334 535.529291,693.9154 C535.529291,689.9954 537.6503,686.3494 541.0493,684.3984 L984.4923,429.9254 C987.5723,428.1574 989.4953,424.8544 989.5103,421.3044 C989.5253,417.7534 987.6313,414.4334 984.5673,412.6404 L982.9313,411.6824 C979.5653,409.7114 977.4813,406.0654 977.4933,402.1654 C977.5053,398.2654 979.6103,394.6314 982.9873,392.6814 L1467.7263,112.8174 C1477.7243,107.0454 1490.1463,107.0444 1500.1453,112.8174 L1554.6733,144.2994 C1564.4123,149.9214 1576.4953,149.8964 1586.2093,144.2314 L1641.1323,112.2024 C1644.2033,110.4124 1646.1033,107.0914 1646.0893,103.5364 C1646.0753,99.9814 1644.1523,96.6754 1641.0693,94.9074 L1478.0453,1.4334 L1478.5413,0.5654 L1641.5663,94.0404 C1644.9583,95.9844 1647.0743,99.6224 1647.0893,103.5324 C1647.1043,107.4434 1645.0143,111.0964 1641.6363,113.0664 L1586.7133,145.0954 C1576.6903,150.9394 1564.2203,150.9664 1554.1733,145.1654 L1499.6453,113.6834 C1489.9553,108.0884 1477.9163,108.0884 1468.2263,113.6834 L983.4873,393.5474 C980.4173,395.3194 978.5043,398.6234 978.4933,402.1684 C978.4823,405.7134 980.3763,409.0284 983.4363,410.8184 L985.0723,411.7764 C988.4433,413.7504 990.5273,417.4024 990.5103,421.3084 C990.4933,425.2144 988.3783,428.8484 984.9903,430.7924 L541.5473,685.2664 C538.4573,687.0394 536.5343,690.3534 536.529291,693.9154 C536.5253,697.4784 538.4373,700.7984 541.5223,702.5804 L582.4363,726.2164 C592.1613,731.8344 604.2353,731.8174 613.9453,726.1724 L882.1013,570.2514 C891.8733,564.5694 904.0983,564.4214 914.0053,569.8624 C920.5483,573.4574 928.6293,573.3684 935.0913,569.6324 L1467.8753,261.6584 C1477.8883,255.8714 1490.3253,255.8744 1500.3353,261.6664 L1645.4453,345.6274 C1652.0443,349.4454 1660.2533,349.4634 1666.8693,345.6774 L1726.3443,311.6364 C1729.4403,309.8644 1731.3663,306.5484 1731.3713,302.9824 C1731.3773,299.4154 1729.4613,296.0934 1726.3713,294.3124 L1670.9683,262.3734 C1667.5743,260.4174 1665.4673,256.7694 1665.4673,252.8534 C1665.4663,248.9374 1667.5743,245.2884 1670.9663,243.3324 L1854.9033,137.2654 C1857.9873,135.4874 1859.9033,132.1724 1859.9033,128.6144 C1859.9043,125.0554 1857.9903,121.7394 1854.9083,119.9604 L1649.7713,1.5384 L1650.2713,0.6724 L1855.4083,119.0944 C1858.7993,121.0514 1860.9033,124.6994 1860.9033,128.6144 C1860.9033,132.5294 1858.7953,136.1764 1855.4033,138.1314 L1671.4663,244.1984 C1668.3823,245.9774 1666.4663,249.2934 1666.4673,252.8534 C1666.4673,256.4134 1668.3833,259.7294 1671.4673,261.5064 L1726.8703,293.4464 C1730.2703,295.4054 1732.3783,299.0604 1732.3713,302.9834 C1732.3653,306.9074 1730.2463,310.5554 1726.8413,312.5044 L1667.3663,346.5454 C1660.4423,350.5084 1651.8513,350.4894 1644.9453,346.4924 L1499.8343,262.5314 C1490.1343,256.9184 1478.0803,256.9154 1468.3763,262.5244 L935.5923,570.4994 C928.8273,574.4084 920.3713,574.5004 913.5233,570.7394 C903.9233,565.4654 892.0753,565.6104 882.6043,571.1154 L614.4483,727.0364 C609.4253,729.9574 603.7883,731.4184 598.1523,731.4184" id="path-11"></path>
        <linearGradient x1="50%" y1="0%" x2="50%" y2="100%" id="linearGradient-12">
            <stop stop-color="#FFFFFF" stop-opacity="0.5" offset="0%"></stop>
            <stop stop-color="#000000" stop-opacity="0.5" offset="100%"></stop>
        </linearGradient>
        <path d="M157.4721,1217.8842 L156.9771,1217.0152 L219.5361,1181.3952 C222.6431,1179.6262 224.5771,1176.3072 224.5831,1172.7322 C224.5891,1169.1562 222.6661,1165.8302 219.5661,1164.0502 L164.8231,1132.6332 C161.4311,1130.6862 159.3161,1127.0482 159.3041,1123.1372 C159.2911,1119.2272 161.3831,1115.5732 164.7631,1113.6062 L176.6061,1106.7072 C179.6781,1104.9192 181.5791,1101.5992 181.5681,1098.0442 C181.5571,1094.4902 179.6351,1091.1832 176.5531,1089.4122 L165.0671,1082.8192 C155.3641,1077.2482 143.3271,1077.2782 133.6521,1082.8942 L0.7461,1160.0362 L0.2441,1159.1712 L133.1501,1082.0282 C143.1331,1076.2332 155.5541,1076.2032 165.5651,1081.9512 L177.0511,1088.5452 C180.4421,1090.4932 182.5561,1094.1322 182.5681,1098.0412 C182.5801,1101.9522 180.4891,1105.6042 177.1091,1107.5722 L165.2651,1114.4702 C162.1941,1116.2592 160.2921,1119.5782 160.3041,1123.1342 C160.3151,1126.6892 162.2381,1129.9962 165.3211,1131.7662 L220.0641,1163.1832 C223.4741,1165.1412 225.5901,1168.8002 225.583117,1172.7332 C225.5761,1176.6652 223.4491,1180.3192 220.0311,1182.2652 L157.4721,1217.8842 Z" id="path-13"></path>
        <linearGradient x1="50%" y1="0%" x2="50%" y2="100%" id="linearGradient-14">
            <stop stop-color="#FFFFFF" stop-opacity="0.5" offset="0%"></stop>
            <stop stop-color="#000000" stop-opacity="0.5" offset="100%"></stop>
        </linearGradient>
        <path d="M330.5234,1217.8822 L330.0224,1217.0172 L348.8584,1206.1202 C351.9394,1204.3392 353.8504,1201.0212 353.8454,1197.4612 C353.8414,1193.9032 351.9214,1190.5892 348.8364,1188.8152 L337.2774,1182.1652 C333.8814,1180.2122 331.7704,1176.5662 331.7674,1172.6492 C331.7644,1168.7322 333.8694,1165.0812 337.2624,1163.1232 L434.8214,1106.8042 C444.8344,1101.0252 457.2714,1101.0322 467.2754,1106.8272 L521.2244,1138.0702 C530.9414,1143.6982 543.0124,1143.6952 552.7274,1138.0652 L692.8344,1056.8452 C702.8124,1051.0602 715.2244,1051.0322 725.2294,1056.7752 L736.5404,1063.2662 C746.2064,1068.8152 758.2074,1068.8032 767.8624,1063.2402 L865.0564,1007.2522 C868.1414,1005.4752 870.0584,1002.1592 870.0594,998.5992 C870.0604,995.0392 868.1444,991.7232 865.0604,989.9442 L853.3694,983.1992 C849.9764,981.2422 847.8694,977.5932 847.8704,973.6752 C847.8724,969.7572 849.9824,966.1112 853.3774,964.1562 L1037.7334,858.0312 C1040.8264,856.2512 1042.7444,852.9282 1042.7394,849.3582 C1042.7334,845.7892 1040.8054,842.4712 1037.7064,840.7012 L982.6154,809.2202 C979.2144,807.2782 977.0934,803.6372 977.0784,799.7202 C977.0634,795.8042 979.1574,792.1492 982.5434,790.1792 L1036.1764,758.9912 C1046.1404,753.1982 1058.5454,753.1522 1068.5524,758.8652 L1253.0744,864.2622 C1262.7064,869.7632 1274.6664,869.7532 1284.2864,864.2362 L1639.6364,660.4682 C1642.7034,658.7082 1644.6274,655.4192 1644.6564,651.8832 C1644.6854,648.3492 1642.8154,645.0282 1639.7774,643.2192 L1584.6214,610.3782 C1581.2804,608.3882 1579.2244,604.7372 1579.2544,600.8502 C1579.2854,596.9622 1581.3984,593.3432 1584.7714,591.4062 L1768.8654,485.6642 C1771.9494,483.8922 1773.8704,480.5832 1773.8794,477.0272 C1773.8884,473.4692 1771.9824,470.1512 1768.9074,468.3642 L1671.4254,411.7372 C1668.0474,409.7752 1665.9514,406.1292 1665.9554,402.2232 C1665.9594,398.3172 1668.0634,394.6752 1671.4444,392.7202 L1990.3054,208.3812 C1993.3854,206.6002 1995.2974,203.2832 1995.2944,199.7252 C1995.2914,196.1672 1993.3744,192.8532 1990.2924,191.0772 L1935.4404,159.4782 C1932.0444,157.5222 1929.9364,153.8722 1929.9384,149.9512 C1929.9394,146.0322 1932.0514,142.3832 1935.4494,140.4292 L2163.8254,9.1322 L2164.3234,9.9992 L1935.9474,141.2962 C1932.8584,143.0722 1930.9394,146.3892 1930.9384,149.9522 C1930.9364,153.5152 1932.8534,156.8332 1935.9404,158.6122 L1990.7914,190.2112 C1994.1834,192.1642 1996.2914,195.8102 1996.2944,199.7242 C1996.2974,203.6392 1994.1934,207.2872 1990.8054,209.2472 L1671.9444,393.5862 C1668.8704,395.3632 1666.9594,398.6732 1666.9554,402.2242 C1666.9514,405.7752 1668.8564,409.0892 1671.9274,410.8722 L1769.4104,467.5002 C1772.7934,469.4652 1774.8894,473.1162 1774.8794,477.0292 C1774.8704,480.9412 1772.7574,484.5822 1769.3634,486.5312 L1585.2694,592.2742 C1582.2034,594.0342 1580.2824,597.3232 1580.2544,600.8582 C1580.2274,604.3912 1582.0964,607.7102 1585.1334,609.5192 L1640.2894,642.3602 C1643.6314,644.3502 1645.6884,648.0022 1645.6564,651.8922 C1645.6244,655.7812 1643.5084,659.4002 1640.1334,661.3352 L1284.7834,865.1032 C1274.8554,870.7952 1262.5164,870.8062 1252.5784,865.1302 L1068.0564,759.7352 C1058.3584,754.1952 1046.3344,754.2402 1036.6794,759.8562 L983.0464,791.0442 C979.9684,792.8332 978.0654,796.1562 978.0784,799.7162 C978.0914,803.2782 980.0204,806.5862 983.1114,808.3532 L1038.2024,839.8322 C1041.6114,841.7802 1043.7324,845.4292 1043.7394,849.3572 C1043.7454,853.2822 1041.6354,856.9402 1038.2324,858.8992 L853.8764,965.0242 C850.7904,966.7992 848.8724,970.1152 848.8704,973.6752 C848.8694,977.2362 850.7844,980.5542 853.8694,982.3332 L865.5604,989.0772 C868.9534,991.0332 871.0604,994.6832 871.0594,998.5992 C871.0584,1002.5162 868.9494,1006.1642 865.5554,1008.1182 L768.3614,1064.1082 C758.3984,1069.8482 746.0154,1069.8572 736.0424,1064.1332 L724.7314,1057.6422 C715.0374,1052.0782 703.0064,1052.1042 693.3354,1057.7102 L553.2294,1138.9292 C543.2054,1144.7402 530.7494,1144.7432 520.7234,1138.9362 L466.7744,1107.6932 C457.0784,1102.0772 445.0264,1102.0692 435.3214,1107.6702 L337.7624,1163.9892 C334.6784,1165.7702 332.7644,1169.0872 332.7674,1172.6482 C332.7704,1176.2082 334.6894,1179.5242 337.7754,1181.2992 L349.3354,1187.9482 C352.7294,1189.9002 354.8404,1193.5442 354.8454,1197.4602 C354.8504,1201.3762 352.7484,1205.0262 349.3594,1206.9862 L330.5234,1217.8822 Z" id="path-15"></path>
        <linearGradient x1="50%" y1="0%" x2="50%" y2="100%" id="linearGradient-16">
            <stop stop-color="#FFFFFF" stop-opacity="0.5" offset="0%"></stop>
            <stop stop-color="#000000" stop-opacity="0.5" offset="100%"></stop>
        </linearGradient>
        <path d="M0.7461,1071.0151 L0.2441,1070.1501 L391.7971,842.7451 C401.8271,836.9191 414.2931,836.9121 424.3291,842.7281 L693.6051,998.7431 C703.3041,1004.3621 715.3591,1004.3701 725.0651,998.7661 L865.3081,917.7971 C868.3901,916.0181 870.3031,912.7031 870.3031,909.1461 C870.3031,905.5881 868.3901,902.2741 865.3081,900.4941 L853.8171,893.8611 C844.2051,888.3111 832.2401,888.2691 822.5901,893.7511 L729.7661,946.4791 C719.8071,952.1361 707.4601,952.0911 697.5431,946.3671 L513.8281,840.2871 C510.4331,838.3281 508.3291,834.6761 508.3331,830.7571 C508.3381,826.8371 510.4531,823.1911 513.8521,821.2401 L864.7051,619.8611 C874.6691,614.1431 887.0451,614.1481 897.0031,619.8731 L1080.8421,725.5841 C1090.5141,731.1461 1102.5261,731.1391 1112.1931,725.5691 L1123.6011,718.9941 C1126.6841,717.2161 1128.6001,713.9021 1128.6021,710.3431 C1128.6031,706.7841 1126.6891,703.4671 1123.6071,701.6881 L982.8701,620.4331 C979.4801,618.4761 977.3751,614.8281 977.3751,610.9151 C977.3751,607.0021 979.4811,603.3551 982.8711,601.3981 L1082.6941,543.7761 L1083.1941,544.6421 L983.3711,602.2651 C980.2891,604.0431 978.3751,607.3581 978.3751,610.9151 C978.3751,614.4731 980.2891,617.7871 983.3701,619.5671 L1124.1071,700.8221 C1127.4981,702.7801 1129.6021,706.4281 1129.6021,710.3431 C1129.6021,714.2581 1127.4921,717.9051 1124.1001,719.8601 L1112.6921,726.4351 C1102.7191,732.1831 1090.3231,732.1901 1080.3431,726.4521 L896.5041,620.7411 C886.8521,615.1911 874.8581,615.1861 865.2031,620.7281 L514.3501,822.1071 C511.2601,823.8801 509.3381,827.1951 509.3331,830.7571 C509.3291,834.3211 511.2431,837.6401 514.3281,839.4211 L698.0431,945.5001 C707.6551,951.0501 719.6221,951.0911 729.2711,945.6111 L822.0961,892.8821 C832.0541,887.2251 844.4001,887.2691 854.3171,892.9941 L865.8081,899.6281 C869.1981,901.5861 871.3031,905.2321 871.3031,909.1461 C871.3031,913.0601 869.1981,916.7061 865.8081,918.6621 L725.5651,999.6321 C715.5491,1005.4151 703.1101,1005.4061 693.1041,999.6081 L423.8291,843.5941 C414.1021,837.9581 402.0211,837.9631 392.2991,843.6111 L0.7461,1071.0151 Z" id="path-17"></path>
        <linearGradient x1="50%" y1="0%" x2="50%" y2="100%" id="linearGradient-18">
            <stop stop-color="#FFFFFF" stop-opacity="0.5" offset="0%"></stop>
            <stop stop-color="#000000" stop-opacity="0.5" offset="100%"></stop>
        </linearGradient>
        <path d="M155.81,626.9789 C149.53,626.9789 143.253,625.3649 137.663,622.1369 L0.635,543.0239 L1.135,542.1579 L138.163,621.2709 C148.965,627.5069 162.412,627.5519 173.255,621.3859 L234.391,586.6199 C237.88,584.6359 240.062,580.9099 240.086,576.8959 C240.11,572.8809 237.971,569.1299 234.505,567.1049 L173.638,531.5499 C169.879,529.3539 167.55,525.2849 167.561,520.9299 C167.573,516.5759 169.922,512.5189 173.693,510.3419 L186.779,502.7859 C190.253,500.7809 192.411,497.0429 192.411,493.0329 C192.411,489.0219 190.253,485.2849 186.779,483.2789 L1.42108547e-14,375.4419 L0.5,374.5759 L187.279,482.4129 C191.061,484.5969 193.411,488.6659 193.411,493.0329 C193.411,497.3989 191.061,501.4689 187.279,503.6519 L174.193,511.2079 C170.729,513.2069 168.572,516.9339 168.561,520.9329 C168.551,524.9319 170.69,528.6689 174.143,530.6869 L235.009,566.2419 C238.783,568.4459 241.112,572.5309 241.086215,576.9009 C241.06,581.2719 238.685,585.3289 234.885,587.4889 L173.749,622.2549 C168.21,625.4049 162.009,626.9789 155.81,626.9789" id="path-19"></path>
        <linearGradient x1="50%" y1="0%" x2="50%" y2="100%" id="linearGradient-20">
            <stop stop-color="#FFFFFF" stop-opacity="0.5" offset="0%"></stop>
            <stop stop-color="#000000" stop-opacity="0.5" offset="100%"></stop>
        </linearGradient>
        <path d="M720.3188,1217.8822 L719.8168,1217.0172 L1206.4688,934.6262 C1217.6748,928.1232 1231.6088,928.1082 1242.8318,934.5862 L1293.0848,963.6002 C1303.9688,969.8842 1317.4928,969.8842 1328.3778,963.6002 L1463.9368,885.3342 C1475.0478,878.9202 1488.8768,878.8752 1500.0268,885.2182 L1596.4078,940.0392 C1599.8208,941.9812 1601.9498,945.6242 1601.96487,949.5502 C1601.9788,953.4772 1599.8778,957.1372 1596.4788,959.1032 L1370.8848,1089.6552 C1359.5478,1096.2152 1345.5028,1096.1502 1334.2288,1089.4812 L1242.3888,1035.1522 C1231.4378,1028.6742 1217.7918,1028.6032 1206.7738,1034.9632 L1153.4128,1065.7712 C1150.3208,1067.5562 1148.4068,1070.8822 1148.4178,1074.4522 C1148.4288,1078.0242 1150.3628,1081.3382 1153.4658,1083.1042 L1294.9338,1163.6222 C1298.3618,1165.5732 1300.4908,1169.2362 1300.4878,1173.1812 C1300.4858,1177.1242 1298.3518,1180.7842 1294.9208,1182.7322 L1233.0578,1217.8292 L1232.5658,1216.9602 L1294.4278,1181.8612 C1297.5468,1180.0922 1299.4858,1176.7652 1299.4878,1173.1792 C1299.4908,1169.5942 1297.5548,1166.2652 1294.4398,1164.4912 L1152.9708,1083.9732 C1149.5578,1082.0302 1147.4298,1078.3832 1147.4178,1074.4562 C1147.4058,1070.5282 1149.5108,1066.8682 1152.9128,1064.9052 L1206.2738,1034.0972 C1217.6028,1027.5562 1231.6368,1027.6302 1242.8978,1034.2912 L1334.7368,1088.6192 C1345.7008,1095.1052 1359.3608,1095.1702 1370.3838,1088.7902 L1595.9788,958.2372 C1599.0668,956.4502 1600.9778,953.1232 1600.9648,949.5542 C1600.9508,945.9862 1599.0158,942.6732 1595.9138,940.9082 L1499.5328,886.0872 C1488.6878,879.9192 1475.2418,879.9622 1464.4368,886.2012 L1328.8778,964.4662 C1317.6838,970.9282 1303.7778,970.9282 1292.5848,964.4662 L1242.3318,935.4522 C1231.4178,929.1522 1217.8678,929.1662 1206.9708,935.4902 L720.3188,1217.8822 Z" id="path-21"></path>
        <linearGradient x1="50%" y1="0%" x2="50%" y2="100%" id="linearGradient-22">
            <stop stop-color="#FFFFFF" stop-opacity="0.5" offset="0%"></stop>
            <stop stop-color="#000000" stop-opacity="0.5" offset="100%"></stop>
        </linearGradient>
        <path d="M2164.5756,627.6244 L2051.1666,562.1484 C2040.2806,555.8634 2026.7576,555.8644 2015.8736,562.1484 L1965.5746,591.1884 C1954.3816,597.6504 1940.4746,597.6504 1929.2816,591.1884 L1876.0016,560.4264 C1872.5996,558.4624 1870.4936,554.8034 1870.50654,550.8754 C1870.5186,546.9484 1872.6466,543.3014 1876.0606,541.3584 L2017.6756,460.7654 C2020.7786,458.9994 2022.7136,455.6854 2022.7236,452.1144 C2022.7336,448.5444 2020.8206,445.2174 2017.7286,443.4324 L1962.6666,411.6424 C1959.2766,409.6844 1957.1716,406.0374 1957.1726,402.1244 C1957.1736,398.2084 1959.2796,394.5624 1962.6696,392.6064 L2163.8246,276.5544 L2164.3246,277.4204 L1963.1696,393.4734 C1960.0886,395.2504 1958.1736,398.5654 1958.1726,402.1244 C1958.1716,405.6814 1960.0856,408.9974 1963.1666,410.7764 L2018.2286,442.5664 C2021.6296,444.5304 2023.7346,448.1894 2023.7236,452.1174 C2023.7116,456.0454 2021.5836,459.6914 2018.1696,461.6344 L1876.5546,542.2284 C1873.4516,543.9944 1871.5166,547.3084 1871.5066,550.8784 C1871.4956,554.4484 1873.4096,557.7754 1876.5016,559.5604 L1929.7816,590.3224 C1940.6656,596.6054 1954.1886,596.6064 1965.0746,590.3224 L2015.3736,561.2824 C2026.5666,554.8194 2040.4726,554.8194 2051.6666,561.2824 L2165.0756,626.7584 L2164.5756,627.6244 Z" id="path-23"></path>
        <linearGradient x1="50%" y1="0%" x2="50%" y2="100%" id="linearGradient-24">
            <stop stop-color="#FFFFFF" stop-opacity="0.5" offset="0%"></stop>
            <stop stop-color="#000000" stop-opacity="0.5" offset="100%"></stop>
        </linearGradient>
        <path d="M1679.3003,1217.5727 L1678.8003,1216.7067 L1779.5423,1158.5317 C1782.6343,1156.7477 1784.5483,1153.4207 1784.5373,1149.8497 C1784.5253,1146.2797 1782.5913,1142.9657 1779.4883,1141.1997 L1724.0313,1109.6437 C1720.6113,1107.6977 1718.4823,1104.0427 1718.4773,1100.1067 C1718.4723,1096.1707 1720.5913,1092.5107 1724.0073,1090.5537 L1951.8293,960.1647 C1954.9033,958.4057 1956.8293,955.1117 1956.8573,951.5707 C1956.8843,948.0287 1955.0083,944.7077 1951.9613,942.9017 L1785.0883,843.9697 C1781.7383,841.9847 1779.6753,838.3317 1779.7033,834.4367 C1779.7323,830.5437 1781.8483,826.9217 1785.2263,824.9847 L1906.5783,755.4057 C1917.7723,748.9877 1931.6593,749.0197 1942.8213,755.4847 L2165.0763,884.2167 L2164.5743,885.0817 L1942.3203,756.3497 C1931.4663,750.0627 1917.9593,750.0327 1907.0763,756.2727 L1785.7243,825.8517 C1782.6543,827.6117 1780.7293,830.9057 1780.7033,834.4447 C1780.6783,837.9847 1782.5533,841.3047 1785.5983,843.1107 L1952.4713,942.0417 C1955.8223,944.0277 1957.8863,947.6817 1957.8573,951.5787 C1957.8263,955.4737 1955.7063,959.0967 1952.3253,961.0317 L1724.5043,1091.4237 C1721.3993,1093.2007 1719.4733,1096.5277 1719.4773,1100.1057 C1719.4823,1103.6827 1721.4163,1107.0057 1724.5263,1108.7747 L1779.9833,1140.3307 C1783.3963,1142.2727 1785.5253,1145.9197 1785.5373,1149.8467 C1785.5493,1153.7737 1783.4453,1157.4337 1780.0423,1159.3987 L1679.3003,1217.5727 Z" id="path-25"></path>
        <polygon id="path-26" points="0 0.4272 559.87178 0.4272 559.87178 373.9932 0 373.9932"></polygon>
    </defs>
    <g id="Page-1" stroke="none" stroke-width="1" fill="none" fill-rule="evenodd">
        <g id="Home-Desktop" transform="translate(249.000000, 85.000000)">
            <g id="Hero">
                <g id="Hero-BG">
                    <mask id="mask-3" fill="white">
                        <use xlink:href="#path-2"></use>
                    </mask>
                    <use id="Rectangle" fill="url(#linearGradient-1)" xlink:href="#path-2"></use>
                    <g id="Group-28" opacity="0.300000012" mask="url(#mask-3)">
                        <g transform="translate(-248.000000, -85.000000)">
                            <g id="Group-3" transform="translate(0.000000, 2.570000)">
                                <mask id="mask-5" fill="white">
                                    <use xlink:href="#path-4"></use>
                                </mask>
                                <g id="Clip-2"></g>
                                <polygon id="Fill-1" mask="url(#mask-5)" points="0 1217.443 2163.579 1217.443 2163.579 0.43 0 0.43"></polygon>
                            </g>
                            <g id="Group-27" transform="translate(0.000000, 0.570000)">
                                <g id="Group-11" transform="translate(0.001500, 2.115800)">
                                    <g id="Fill-4">
                                        <use fill="#4A3DF9" xlink:href="#path-7"></use>
                                        <use stroke="#979797" stroke-width="1" fill="url(#linearGradient-6)" xlink:href="#path-7"></use>
                                    </g>
                                    <g id="Fill-9">
                                        <use fill="#4A3DF9" xlink:href="#path-9"></use>
                                        <use stroke="#979797" stroke-width="1" fill="url(#linearGradient-8)" xlink:href="#path-9"></use>
                                    </g>
                                    <g id="Fill-11">
                                        <use fill="#4A3DF9" xlink:href="#path-11"></use>
                                        <use stroke="#979797" stroke-width="1" fill="url(#linearGradient-10)" xlink:href="#path-11"></use>
                                    </g>
                                    <g id="Fill-13">
                                        <use fill="#4A3DF9" xlink:href="#path-13"></use>
                                        <use stroke="#979797" stroke-width="1" fill="url(#linearGradient-12)" xlink:href="#path-13"></use>
                                    </g>
                                    <g id="Fill-15">
                                        <use fill="#4A3DF9" xlink:href="#path-15"></use>
                                        <use stroke="#979797" stroke-width="1" fill="url(#linearGradient-14)" xlink:href="#path-15"></use>
                                    </g>
                                    <g id="Fill-17">
                                        <use fill="#4A3DF9" xlink:href="#path-17"></use>
                                        <use stroke="#979797" stroke-width="1" fill="url(#linearGradient-16)" xlink:href="#path-17"></use>
                                    </g>
                                    <g id="Fill-19">
                                        <use fill="#4A3DF9" xlink:href="#path-19"></use>
                                        <use stroke="#979797" stroke-width="1" fill="url(#linearGradient-18)" xlink:href="#path-19"></use>
                                    </g>
                                    <g id="Fill-21">
                                        <use fill="#4A3DF9" xlink:href="#path-21"></use>
                                        <use stroke="#979797" stroke-width="1" fill="url(#linearGradient-20)" xlink:href="#path-21"></use>
                                    </g>
                                    <g id="Fill-23">
                                        <use fill="#4A3DF9" xlink:href="#path-23"></use>
                                        <use stroke="#979797" stroke-width="1" fill="url(#linearGradient-22)" xlink:href="#path-23"></use>
                                    </g>
                                    <g id="Fill-25">
                                        <use fill="#4A3DF9" xlink:href="#path-25"></use>
                                        <use stroke="#979797" stroke-width="1" fill="url(#linearGradient-24)" xlink:href="#path-25"></use>
                                    </g>
                                </g>
                                <g id="Group-8">
                                    <mask id="mask-27" fill="white">
                                        <use xlink:href="#path-26"></use>
                                    </mask>
                                    <g id="Clip-7"></g>
                                    <path d="M439.9927,373.9932 C433.7127,373.9932 427.4347,372.3782 421.8447,369.1512 L286.2847,290.8862 C275.4007,284.6002 261.8767,284.6002 250.9927,290.8862 L200.7597,319.8872 C189.5247,326.3742 175.5797,326.3522 164.3657,319.8282 L-0.0003,224.2252 L0.5027,223.3612 L164.8687,318.9642 C175.7737,325.3072 189.3347,325.3292 200.2597,319.0212 L250.4927,290.0192 C261.6857,283.5562 275.5917,283.5562 286.7847,290.0192 L422.3447,368.2852 C433.1487,374.5232 446.5967,374.5662 457.4407,368.3982 L553.8217,313.5772 C556.9237,311.8122 558.8587,308.4992 558.8717,304.9312 C558.8847,301.3622 556.9747,298.0352 553.8857,296.2482 L328.2917,165.6952 C317.2687,159.3162 303.6097,159.3812 292.6447,165.8662 L200.8057,220.1942 C189.5447,226.8552 175.5117,226.9292 164.1807,220.3892 L110.8197,189.5802 C107.4187,187.6172 105.3127,183.9572 105.3257,180.0302 C105.3377,176.1022 107.4657,172.4552 110.8787,170.5132 L252.3697,89.9812 C255.4847,88.2082 257.4187,84.8812 257.4177,81.2992 C257.4177,77.7162 255.4837,74.3892 252.3687,72.6172 L127.0217,1.2962 L127.5157,0.4272 L252.8637,71.7482 C256.2897,73.6972 258.4177,77.3572 258.4177,81.2992 C258.4187,85.2402 256.2907,88.9002 252.8657,90.8502 L111.3727,171.3822 C108.2707,173.1472 106.3367,176.4622 106.3257,180.0332 C106.3137,183.6032 108.2277,186.9292 111.3197,188.7142 L164.6807,219.5222 C175.6987,225.8832 189.3457,225.8112 200.2967,219.3342 L292.1367,165.0052 C303.4097,158.3362 317.4557,158.2692 328.7927,164.8302 L554.3867,295.3832 C557.7847,297.3482 559.8867,301.0092 559.87178,304.9352 C559.8577,308.8602 557.7287,312.5052 554.3157,314.4462 L457.9347,369.2672 C452.3947,372.4182 446.1927,373.9932 439.9927,373.9932" id="Fill-6" fill="#4A3DF9" mask="url(#mask-27)"></path>
                                </g>
                            </g>
                        </g>
                    </g>
                </g>
            </g>
        </g>
    </g>
</svg>