
<svg width="1700px" height="2815px" viewBox="0 0 1700 2815" version="1.1" xmlns="http://www.w3.org/2000/svg" xmlns:xlink="http://www.w3.org/1999/xlink">
    <defs>
        <linearGradient x1="50%" y1="0%" x2="50%" y2="100%" id="linearGradient-1">
            <stop stop-color="#4332CC" offset="0%"></stop>
            <stop stop-color="#190F4B" offset="100%"></stop>
        </linearGradient>
        <path d="M-6.82121026e-13,3.9590609e-06 L1700,3.9590609e-06 L1700,2619.60223 L860.274431,2813.71536 C852.856182,2815.43018 845.144279,2815.42819 837.726918,2813.70953 L-6.82121026e-13,2619.60223 L-6.82121026e-13,2619.60223 L-6.82121026e-13,3.9590609e-06 Z" id="path-2"></path>
        <polygon id="path-4" points="0 0.484312299 635.854378 0.484312299 635.854378 423.992291 0 423.992291"></polygon>
    </defs>
    <g id="Page-1" stroke="none" stroke-width="1" fill="none" fill-rule="evenodd">
        <g id="Home-Desktop" transform="translate(0.000000, -3130.000000)">
            <g id="Footer-BG" transform="translate(0.000000, 3130.000000)">
                <mask id="mask-3" fill="white">
                    <use xlink:href="#path-2"></use>
                </mask>
                <use id="Rectangle" fill="url(#linearGradient-1)" transform="translate(850.000000, 1407.500002) rotate(-180.000000) translate(-850.000000, -1407.500002) " xlink:href="#path-2"></use>
                <g id="Group-27" opacity="0.200000003" mask="url(#mask-3)">
                    <g transform="translate(-378.000000, 24.000000)">
                        <path d="M1037.80713,284 C1031.45182,284 1025.09652,282.364277 1019.42846,279.092831 L860.232826,187.19061 C856.389477,184.9707 854,180.83375 854,176.395065 C854,171.955246 856.388343,167.818296 860.231692,165.598386 L922.176638,129.825738 C925.670695,127.808875 927.840163,124.048527 927.840163,120.012534 C927.840163,115.976541 925.670695,112.217327 922.176638,110.199331 L909.045289,102.61738 C905.20194,100.397471 902.814732,96.2616552 902.814732,91.8218357 C902.814732,87.3808819 905.20194,83.2450664 909.045289,81.0251567 L1045.88281,2.00340303 L1046.44985,2.98574428 L909.612322,82.0086323 C906.1194,84.0254946 903.948797,87.7858424 903.948797,91.8218357 C903.948797,95.8566946 906.1194,99.6170425 909.612322,101.633905 L922.743671,109.216989 C926.58702,111.436899 928.974229,115.573849 928.974229,120.012534 C928.974229,124.452354 926.58702,128.588169 922.743671,130.808079 L860.798725,166.580727 C857.304668,168.598724 855.134066,172.359072 855.134066,176.395065 C855.1352,180.429924 857.305802,184.190272 860.799859,186.208269 L1019.99549,278.11049 C1030.97098,284.445797 1044.60926,284.451469 1055.58928,278.127505 L1166.22761,214.393295 C1169.72507,212.378702 1171.90021,208.618354 1171.90248,204.580092 C1171.90475,200.542964 1169.73415,196.779213 1166.23896,194.761217 L1104.01049,158.825223 C1100.14786,156.593969 1097.76066,152.436601 1097.77993,147.975229 C1097.79921,143.513857 1100.22271,139.376908 1104.10575,137.179685 L1166.12782,102.080836 C1177.39136,95.705827 1191.35625,95.7557381 1202.57443,102.216957 L1395.49377,213.308863 C1406.53391,219.666857 1420.22775,219.626021 1431.23046,213.203369 L1492.83065,177.244688 C1496.30656,175.214214 1498.46015,171.451597 1498.44881,167.424679 C1498.43634,163.39776 1496.26233,159.647621 1492.77395,157.637565 L1396.27288,102.046806 C1392.40118,99.8166869 1390.00943,95.6559159 1390.02984,91.1866035 C1390.05139,86.7172911 1392.48283,82.5780726 1396.37494,80.3853871 L1535.44317,2 L1536,2.98914731 L1396.93177,81.3734001 C1393.39348,83.3664411 1391.18319,87.1290577 1391.16391,91.1922752 C1391.14577,95.2543584 1393.31977,99.0373931 1396.83878,101.064464 L1493.33984,156.655224 C1497.17866,158.866059 1499.5704,162.991665 1499.58288,167.421276 C1499.59535,171.850886 1497.22742,175.991239 1493.40222,178.223627 L1431.80089,214.182307 C1420.45116,220.809141 1406.32184,220.852246 1394.92788,214.291204 L1202.00853,103.199298 C1191.13737,96.9399924 1177.60343,96.8900813 1166.68578,103.067715 L1104.66371,138.166563 C1101.1345,140.164142 1098.93101,143.92449 1098.914,147.979767 C1098.89699,152.036178 1101.06646,155.814676 1104.57753,157.842881 L1166.80599,193.777741 C1170.65161,195.99992 1173.03881,200.139138 1173.03655,204.580092 C1173.03428,209.023314 1170.6414,213.160264 1166.79351,215.375637 L1056.15518,279.109846 C1050.49506,282.369949 1044.15109,284 1037.80713,284" id="Fill-4" fill="#4A3DF9"></path>
                        <g id="Group-8" stroke-width="1" fill="none">
                            <mask id="mask-5" fill="white">
                                <use xlink:href="#path-4"></use>
                            </mask>
                            <g id="Clip-7"></g>
                            <path d="M499.705995,423.992291 C492.573709,423.992291 485.443695,422.161382 479.095052,418.502965 L325.137624,329.774729 C312.776509,322.648355 297.417109,322.648355 285.055995,329.774729 L228.005659,362.652868 C215.245909,370.007114 199.408374,369.982173 186.672474,362.585981 L-0.000340714286,254.201831 L0.570923571,253.222323 L187.243738,361.606473 C199.628702,368.797467 215.030124,368.822409 227.437802,361.671093 L284.488138,328.79182 C297.200188,321.464783 312.993431,321.464783 325.705481,328.79182 L479.662909,417.521189 C491.933166,424.593147 507.206252,424.641895 519.521938,417.649296 L628.983216,355.499286 C632.506202,353.498323 634.703809,349.742409 634.718574,345.697403 C634.733338,341.651264 632.564124,337.879478 629.055902,335.853574 L372.845574,187.846965 C360.326595,180.615157 344.813874,180.688847 332.360766,188.040826 L228.057902,249.631927 C215.268624,257.183435 199.331145,257.267328 186.462366,249.852997 L125.859516,214.925147 C121.996952,212.699713 119.605138,208.550409 119.619902,204.098409 C119.633531,199.645275 122.050331,195.510708 125.926524,193.309082 L286.619874,102.010772 C290.157624,100.00074 292.354095,96.228954 292.352959,92.168077 C292.352959,88.1060663 290.156488,84.3342802 286.618738,82.3253818 L144.260359,1.46948877 L144.821402,0.484312299 L287.180916,81.3402053 C291.071874,83.5497668 293.488674,87.6990717 293.488674,92.168077 C293.489809,96.6359487 291.073009,100.785253 287.183188,102.995949 L126.487566,194.294259 C122.964581,196.295221 120.768109,200.053403 120.755616,204.10181 C120.741988,208.149082 122.915745,211.919735 126.427374,213.943371 L187.030224,248.870088 C199.543524,256.081489 215.042616,255.999863 227.479824,248.656954 L331.783824,187.064719 C344.586731,179.504141 360.538974,179.428184 373.414566,186.866323 L629.624895,334.872933 C633.484052,337.100633 635.871324,341.251072 635.854378,345.701938 C635.838388,350.151671 633.420452,354.28397 629.544259,356.484462 L520.082981,418.634473 C513.791124,422.206729 506.747424,423.992291 499.705995,423.992291" id="Fill-6" fill="#4A3DF9" mask="url(#mask-5)"></path>
                        </g>
                        <path d="M0.566819729,1093 L0,1092.01713 L249.278248,947.904023 C252.783461,945.87813 254.952113,942.102137 254.939643,938.050349 C254.927173,933.997427 252.733581,930.236188 249.215898,928.231859 L186.348788,892.418372 C182.469474,890.207481 180.057089,886.060358 180.051421,881.593177 C180.046886,877.125997 182.449068,872.972063 186.32158,870.753228 L444.494363,722.819865 C447.98824,720.817805 450.17163,717.070186 450.193169,713.041098 C450.214708,709.010875 448.070996,705.240556 444.598658,703.201043 L381.228212,665.987023 C377.408981,663.744353 375.051011,659.598365 375.07255,655.167503 C375.094089,650.735506 377.494004,646.613351 381.333641,644.40927 L638.591577,496.735812 C642.100191,494.721268 644.281313,490.954354 644.282447,486.907107 C644.284714,482.856454 642.108126,479.088406 638.600646,477.071592 L605.100466,457.795526 C601.260829,455.586905 598.866583,451.46248 598.849578,447.028214 C598.832574,442.596217 601.197346,438.452498 605.019978,436.215503 L763.766912,343.294515 C767.238116,341.262947 769.386363,337.500573 769.37616,333.476025 C769.364824,329.451477 767.195038,325.700452 763.713631,323.689313 L528.357609,187.648003 C524.515705,185.426897 522.128261,181.287718 522.128261,176.846642 C522.128261,172.405565 524.515705,168.266386 528.357609,166.045281 L810.43318,3 L811,3.98287052 L528.924429,167.028151 C525.431686,169.047235 523.2619,172.809609 523.2619,176.846642 C523.2619,180.883674 525.431686,184.646048 528.924429,186.665132 L764.280451,322.705308 C768.111018,324.919604 770.497329,329.045163 770.509799,333.47262 C770.521136,337.901212 768.157498,342.039256 764.3394,344.273981 L605.592466,437.194969 C602.116727,439.228807 599.967347,442.994586 599.983218,447.023674 C599.999089,451.053897 602.174543,454.803786 605.665019,456.811521 L639.165198,476.086451 C643.022973,478.306422 645.418353,482.452411 645.416086,486.907107 C645.414953,491.360668 643.015038,495.504386 639.154995,497.719817 L381.89706,645.393275 C378.406584,647.39647 376.226595,651.144089 376.20619,655.172042 C376.186918,659.201131 378.33063,662.970314 381.8007,665.007557 L445.17228,702.221577 C448.991511,704.465382 451.350615,708.612506 451.326808,713.046773 C451.303002,717.481039 448.90082,721.603194 445.057782,723.805005 L186.884999,871.738368 C183.365049,873.754047 181.180525,877.53004 181.18506,881.590907 C181.190728,885.652909 183.384321,889.423228 186.908806,891.430962 L249.777049,927.245583 C253.646161,929.44853 256.059679,933.588844 256.073283,938.046944 C256.086886,942.50391 253.700575,946.657844 249.845067,948.886894 L0.566819729,1093 Z" id="Fill-9" fill="#4A3DF9"></path>
                        <path d="M679.062964,832 C672.701421,832 666.339878,830.360949 660.661468,827.081714 L614.233324,800.270477 C610.383036,798.047267 608,793.904836 608,789.460684 C608,785.014263 610.406866,780.878638 614.263963,778.665636 L1117.47156,490.019195 C1120.96666,488.013769 1123.14884,484.267206 1123.16586,480.240472 C1123.18288,476.212605 1121.03362,472.446759 1117.55667,470.412975 L1115.70018,469.326324 C1111.88053,467.090637 1109.51566,462.955011 1109.52928,458.531276 C1109.54289,454.107541 1111.93159,449.985528 1115.76373,447.77366 L1665.83295,130.326436 C1677.17842,123.779309 1691.27459,123.778174 1702.62119,130.326436 L1764.49815,166.036186 C1775.54971,172.413171 1789.26119,172.384813 1800.28438,165.959055 L1862.60958,129.628847 C1866.09447,127.598466 1868.25054,123.831486 1868.23465,119.799081 C1868.21877,115.766677 1866.03659,112.016711 1862.53809,110.011284 L1677.54269,3.98456461 L1678.10553,3 L1863.10207,109.027854 C1866.95122,111.232916 1869.3524,115.359466 1869.36943,119.794544 C1869.38645,124.230756 1867.01477,128.374322 1863.1815,130.608875 L1800.85631,166.939082 C1789.48247,173.567879 1775.33184,173.598505 1763.93076,167.018483 L1702.0538,131.308732 C1691.05784,124.962374 1677.3963,124.962374 1666.40034,131.308732 L1116.33111,448.755956 C1112.84736,450.76592 1110.67653,454.513618 1110.66405,458.534679 C1110.65157,462.555741 1112.80083,466.315916 1116.27324,468.346297 L1118.12973,469.432948 C1121.95505,471.672038 1124.31992,475.814469 1124.30063,480.24501 C1124.28134,484.67555 1121.88129,488.797564 1118.03668,491.002626 L614.82908,779.650201 C611.322628,781.661299 609.140458,785.420339 609.134784,789.460684 C609.130245,793.502163 611.299933,797.268009 614.800711,799.289315 L661.228855,826.099418 C672.264533,832.471865 685.965794,832.452582 696.98445,826.049509 L1001.28091,649.189718 C1012.36993,642.744676 1026.24254,642.576801 1037.48474,648.748479 C1044.90957,652.826255 1054.07968,652.725303 1061.41259,648.487592 L1666.00203,299.155447 C1677.36453,292.591305 1691.47771,292.594708 1702.8368,299.164521 L1867.50386,394.40073 C1874.99223,398.731454 1884.30759,398.751871 1891.81526,394.457445 L1959.30594,355.845044 C1962.8192,353.83508 1965.00478,350.073771 1965.01045,346.02889 C1965.01726,341.982873 1962.84303,338.214759 1959.33658,336.194586 L1896.4667,299.966465 C1892.61527,297.747792 1890.2243,293.609898 1890.2243,289.168015 C1890.22317,284.726131 1892.61527,280.587103 1896.46443,278.36843 L2105.19136,158.057583 C2108.691,156.040814 2110.86523,152.280639 2110.86523,148.244832 C2110.86636,144.20789 2108.6944,140.446581 2105.19703,138.428677 L1872.41289,4.10366517 L1872.98028,3.12136914 L2105.76442,137.446381 C2109.61244,139.666189 2112,143.804082 2112,148.244832 C2112,152.685581 2109.6079,156.82234 2105.75874,159.039879 L1897.03181,279.350726 C1893.53217,281.36863 1891.35794,285.129939 1891.35908,289.168015 C1891.35908,293.206091 1893.5333,296.9674 1897.03295,298.983035 L1959.90283,335.21229 C1963.76106,337.434366 1966.15317,341.5802 1966.14522,346.030024 C1966.13842,350.480982 1963.73383,354.618875 1959.86992,356.829609 L1892.37924,395.44201 C1884.52206,399.937205 1874.77322,399.915653 1866.93647,395.381892 L1702.26828,300.145683 C1691.26097,293.778908 1677.5824,293.775505 1666.57056,300.137743 L1061.98111,649.471022 C1054.30436,653.904966 1044.70872,654.009321 1036.93778,649.743252 C1026.04395,643.761001 1012.59915,643.925473 1001.85171,650.169745 L697.555241,827.029537 C691.855271,830.342801 685.45855,832 679.062964,832" id="Fill-11" fill="#4A3DF9"></path>
                        <path d="M374.568381,1384 L374,1383.01818 L395.369293,1370.64946 C398.864663,1368.62792 401.032678,1364.86181 401.027005,1360.821 C401.022467,1356.78247 398.844243,1353.02089 395.344334,1351.0073 L382.23074,1343.45917 C378.378005,1341.24241 375.983092,1337.10399 375.979689,1332.65797 C375.976285,1328.21195 378.364391,1324.06786 382.213723,1321.84542 L492.893638,1257.92015 C504.253307,1251.36066 518.362986,1251.3686 529.712445,1257.94626 L590.917159,1293.40884 C601.941019,1299.79694 615.635473,1299.79354 626.657064,1293.40317 L785.607349,1201.21385 C796.927311,1194.64754 811.008627,1194.61576 822.359221,1201.13439 L835.191461,1208.50205 C846.157462,1214.80048 859.772501,1214.78686 870.726023,1208.47253 L980.991848,1144.92297 C984.491756,1142.90597 986.666578,1139.14213 986.667712,1135.10132 C986.668847,1131.06052 984.49516,1127.29667 980.996386,1125.27741 L967.733039,1117.62145 C963.883707,1115.40014 961.493332,1111.25832 961.494467,1106.81117 C961.496736,1102.36401 963.890514,1098.2256 967.742115,1096.00656 L1176.89254,975.548648 C1180.40153,973.528247 1182.57748,969.756453 1182.57181,965.704299 C1182.565,961.653281 1180.3777,957.887163 1176.86191,955.878112 L1114.36161,920.145387 C1110.5032,917.941106 1108.09694,913.808364 1108.07992,909.362346 C1108.06291,904.917463 1110.43853,900.768831 1114.27992,898.532769 L1175.12614,863.132615 C1186.43022,856.55723 1200.50359,856.505018 1211.85645,862.989598 L1421.19521,982.621187 C1432.12263,988.865135 1445.69116,988.853784 1456.60497,982.591676 L1859.74674,751.303406 C1863.22623,749.305706 1865.40899,745.572504 1865.44189,741.558943 C1865.47479,737.547652 1863.35329,733.778128 1859.90671,731.72481 L1797.33266,694.448407 C1793.54232,692.189644 1791.2098,688.045551 1791.24384,683.633585 C1791.27901,679.220484 1793.67619,675.112713 1797.50283,672.914108 L2006.35602,552.890924 C2009.8548,550.879603 2012.03415,547.1237 2012.04437,543.087437 C2012.05458,539.048905 2009.89223,535.282786 2006.40367,533.25444 L1895.81111,468.979574 C1891.9788,466.752592 1889.6009,462.614175 1889.60544,458.180643 C1889.60998,453.747111 1891.99695,449.613234 1895.83267,447.394197 L2257.57795,238.158948 C2261.07219,236.137411 2263.24134,232.372428 2263.23793,228.333895 C2263.23453,224.295363 2261.05971,220.533784 2257.5632,218.517923 L2195.33404,182.651261 C2191.48131,180.43109 2189.0898,176.288132 2189.09207,171.837574 C2189.0932,167.389286 2191.48925,163.247464 2195.34425,161.029563 L2454.43502,12 L2455,12.9840943 L2195.90923,162.013657 C2192.40479,164.029518 2190.22769,167.794502 2190.22656,171.838709 C2190.22429,175.882917 2192.39911,179.649036 2195.90129,181.668302 L2258.12932,217.534964 C2261.97751,219.75173 2264.36902,223.890148 2264.37243,228.33276 C2264.37583,232.776508 2261.98886,236.917195 2258.1452,239.141907 L1896.39991,448.377157 C1892.91248,450.394153 1890.74447,454.151191 1890.73993,458.181778 C1890.73539,462.212365 1892.8966,465.973943 1896.38063,467.99775 L2006.97432,532.273751 C2010.81231,534.504137 2013.1902,538.64823 2013.17886,543.089708 C2013.16865,547.53005 2010.77146,551.662792 2006.921,553.875018 L1798.06781,673.899337 C1794.58946,675.897037 1792.4101,679.63024 1792.37833,683.642666 C1792.3477,687.652822 1794.46807,691.420075 1797.91352,693.473393 L1860.48757,730.749796 C1864.27904,733.008559 1866.61269,737.153787 1866.57638,741.569158 C1866.54008,745.983394 1864.1395,750.091165 1860.31058,752.2875 L1457.16882,983.57577 C1445.90558,990.036514 1431.90708,990.048999 1420.6325,983.606417 L1211.29375,863.977097 C1200.29144,857.688882 1186.65031,857.739959 1175.69679,864.114439 L1114.85057,899.514593 C1111.3586,901.54521 1109.19967,905.317004 1109.21441,909.357806 C1109.22916,913.400879 1111.4176,917.155647 1114.92431,919.161292 L1177.42462,954.891748 C1181.2921,957.102838 1183.69836,961.244661 1183.7063,965.703164 C1183.71311,970.158263 1181.31933,974.310301 1177.45865,976.533877 L968.308226,1096.99179 C964.807184,1099.00651 962.631228,1102.77036 962.628959,1106.81117 C962.627824,1110.8531 964.800377,1114.61922 968.300285,1116.63849 L981.563632,1124.29331 C985.412964,1126.51348 987.803339,1130.65644 987.802204,1135.10132 C987.80107,1139.54734 985.408426,1143.68803 981.55796,1145.90593 L871.292134,1209.45776 C859.989189,1215.97299 845.940774,1215.98321 834.626484,1209.48614 L821.794244,1202.11849 C810.796477,1195.80303 797.147403,1195.83254 786.17573,1202.19567 L627.226579,1294.38385 C615.85443,1300.97967 601.723196,1300.98308 590.348779,1294.3918 L529.144064,1258.92922 C518.144029,1252.55474 504.47113,1252.54566 493.460884,1258.90311 L382.780969,1322.82838 C379.282195,1324.84992 377.110777,1328.6149 377.114181,1332.65684 C377.117584,1336.69764 379.294675,1340.46149 382.795717,1342.47621 L395.910446,1350.02321 C399.760912,1352.23884 402.155825,1356.37499 402.161497,1360.81987 C402.16717,1365.26475 399.782468,1369.40771 395.937674,1371.63242 L374.568381,1384 Z" id="Fill-15" fill="#4A3DF9"></path>
                        <path d="M0.569404918,1217 L0,1216.01891 L444.127896,958.093773 C455.504652,951.485863 469.644496,951.477924 481.028057,958.074492 L786.460485,1135.02834 C797.461797,1141.40147 811.135455,1141.41054 822.144706,1135.05443 L981.218519,1043.21854 C984.714347,1041.20078 986.884211,1037.44087 986.884211,1033.40648 C986.884211,1029.37096 984.714347,1025.61219 981.218519,1023.59329 L968.18459,1016.07008 C957.281961,1009.77521 943.710387,1009.72757 932.764655,1015.94531 L827.476922,1075.74996 C816.1807,1082.16619 802.175834,1082.11515 790.927251,1075.62293 L582.544334,955.305884 C578.693478,953.083966 576.306968,948.941829 576.311505,944.496858 C576.317176,940.050753 578.716163,935.915422 582.571556,933.702577 L980.534552,705.296404 C991.836446,698.810989 1005.87421,698.81666 1017.16929,705.310015 L1225.69286,825.208539 C1236.66355,831.517018 1250.28843,831.509078 1261.25345,825.191526 L1274.19323,817.734092 C1277.69019,815.717466 1279.86346,811.958692 1279.86573,807.922037 C1279.86686,803.885382 1277.69586,800.123206 1274.20003,798.105446 L1114.56589,705.945173 C1110.72071,703.725523 1108.33306,699.587923 1108.33306,695.149758 C1108.33306,690.711592 1110.72184,686.575126 1114.56703,684.355476 L1227.79353,619 L1228.36067,619.982226 L1115.13416,685.338837 C1111.63833,687.355463 1109.46734,691.115371 1109.46734,695.149758 C1109.46734,699.185278 1111.63833,702.944052 1115.13303,704.962947 L1274.76717,797.123219 C1278.61349,799.344003 1281,803.481603 1281,807.922037 C1281,812.362471 1278.60668,816.498937 1274.75923,818.716318 L1261.81945,826.173752 C1250.50735,832.693194 1236.4469,832.701134 1225.12686,826.193034 L1016.60329,706.29451 C1005.65529,699.999642 992.050823,699.99397 981.09942,706.279765 L583.136424,934.685937 C579.631521,936.696893 577.451449,940.4568 577.445778,944.496858 C577.441241,948.539184 579.612239,952.303629 583.11147,954.323658 L791.494388,1074.63957 C802.397017,1080.93444 815.970859,1080.98094 826.915457,1074.76547 L932.204325,1014.95968 C943.499413,1008.54346 957.503144,1008.59336 968.751727,1015.08672 L981.785655,1022.61107 C985.63084,1024.83185 988.018484,1028.96718 988.018484,1033.40648 C988.018484,1037.84578 985.63084,1041.98111 981.785655,1044.19963 L822.711842,1136.03665 C811.350966,1142.59579 797.241748,1142.58558 785.892215,1136.00943 L480.460921,959.056718 C469.42785,952.664308 455.724701,952.669979 444.697301,959.076 L0.569404918,1217 Z" id="Fill-17" fill="#4A3DF9"></path>
                        <path d="M816.569635,1384 L816,1383.01807 L1368.21869,1062.45216 C1380.93448,1055.07005 1396.74581,1055.05302 1409.48088,1062.40675 L1466.50448,1095.34299 C1478.85488,1102.47649 1494.20097,1102.47649 1506.55251,1095.34299 L1660.37539,1006.49664 C1672.98338,999.215564 1688.67556,999.164481 1701.3278,1006.36496 L1810.69423,1068.59691 C1814.56706,1070.80144 1816.9829,1074.93692 1817,1079.39365 C1817.01581,1083.85152 1814.63174,1088.0063 1810.77479,1090.23807 L1554.78648,1238.43869 C1541.92205,1245.8855 1525.98476,1245.81171 1513.19181,1238.24116 L1408.9782,1176.56772 C1396.55177,1169.214 1381.06724,1169.1334 1368.56478,1176.35317 L1308.01445,1211.32594 C1304.50586,1213.35224 1302.33399,1217.12787 1302.34647,1221.18048 C1302.35895,1225.23535 1304.55352,1228.99736 1308.07459,1231.00209 L1468.60259,1322.40488 C1472.49245,1324.61963 1474.90829,1328.77781 1474.90488,1333.25611 C1474.90261,1337.73215 1472.4811,1341.88692 1468.58784,1344.09826 L1398.39003,1383.93984 L1397.83174,1382.95336 L1468.02842,1343.10952 C1471.56764,1341.10137 1473.76788,1337.32462 1473.77015,1333.25384 C1473.77356,1329.18421 1471.57672,1325.40518 1468.04204,1323.39136 L1307.5129,1231.98857 C1303.64006,1229.7829 1301.22536,1225.64289 1301.21174,1221.18502 C1301.19812,1216.72601 1303.58673,1212.57124 1307.44708,1210.34287 L1367.99742,1175.3701 C1380.85278,1167.94486 1396.77758,1168.02886 1409.55577,1175.59033 L1513.76826,1237.26264 C1526.20944,1244.62544 1541.70985,1244.69923 1554.21798,1237.45675 L1810.20743,1089.255 C1813.71147,1087.22642 1815.87994,1083.44967 1815.86519,1079.39819 C1815.8493,1075.34785 1813.6536,1071.58699 1810.13367,1069.58339 L1700.76724,1007.35143 C1688.4611,1000.34961 1673.20351,1000.39843 1660.94275,1007.48084 L1507.11987,1096.32606 C1494.4177,1103.66163 1478.63815,1103.66163 1465.93711,1096.32606 L1408.91352,1063.38982 C1396.52907,1056.23816 1381.15348,1056.25405 1368.78833,1063.43296 L816.569635,1384 Z" id="Fill-21" fill="#4A3DF9"></path>
                        <path d="M1905.56655,1384 L1905,1383.01709 L2019.1509,1316.98823 C2022.65445,1314.96338 2024.8232,1311.18722 2024.81074,1307.13413 C2024.79714,1303.08216 2022.60572,1299.32076 2019.08971,1297.31634 L1956.25131,1261.50016 C1952.3761,1259.29144 1949.96373,1255.143 1949.95806,1250.67562 C1949.9524,1246.20825 1952.35344,1242.05413 1956.22411,1239.83293 L2214.36953,1091.8409 C2217.85269,1089.84442 2220.03504,1086.10572 2220.06677,1082.08667 C2220.09736,1078.06649 2217.97166,1074.29714 2214.5191,1072.24732 L2025.43508,959.959108 C2021.63919,957.706125 2019.3016,953.559955 2019.33333,949.139115 C2019.36619,944.720544 2021.76383,940.60956 2025.59145,938.411057 L2163.09556,859.438615 C2175.7795,852.15416 2191.51488,852.19048 2204.16256,859.528281 L2456,1005.63961 L2455.43118,1006.62139 L2203.59487,860.510059 C2191.29619,853.374289 2175.99139,853.340239 2163.65985,860.422664 L2026.15573,939.395106 C2022.67711,941.392713 2020.49589,945.131416 2020.46643,949.148195 C2020.4381,953.166109 2022.56267,956.934322 2026.01296,958.984139 L2215.09698,1071.27122 C2218.89401,1073.52534 2221.23273,1077.67264 2221.19987,1082.09575 C2221.16474,1086.51659 2218.76257,1090.62871 2214.93155,1092.82494 L1956.78726,1240.82038 C1953.26899,1242.83728 1951.08663,1246.61344 1951.09116,1250.67449 C1951.09683,1254.7344 1953.28825,1258.50601 1956.81219,1260.51384 L2019.6506,1296.33002 C2023.51787,1298.5342 2025.93024,1302.67356 2025.94384,1307.13072 C2025.95744,1311.58788 2023.57339,1315.742 2019.71745,1317.97228 L1905.56655,1384 Z" id="Fill-25" fill="#4A3DF9"></path>
                    </g>
                </g>
            </g>
        </g>
    </g>
</svg>